PathFileType  4	(X/Y/Z) C:\Users\antoi\Documents\MyRepositories\mobilecap\ResultsAnalysis
DataRate	CameraRate	NumFrames	NumMarkers	Units	OrigDataRate	OrigDataStartFrame	OrigNumFrames
100.0	100.0	4	51	mm	100.0	119	135
Frame#	Time	r_knee			r_shank_antsup			r_ankle			r_calc			r_5meta			r_toe			L_knee			L_shank_antsup			L_ankle			L_calc			L_5meta			L_toe			r_sh2			r_sh3			r_sh4			L_sh2			L_sh3			r_thigh1			r_thigh2			r_thigh3			r_thigh4			r_thigh5			L_thigh1			L_thigh2			L_thigh3			L_thigh4			r.ASIS			r.PSIS			L.ASIS			L.PSIS			C7			R_Shoulder			L_Shoulder			R_Sternum			L_Sternum			R_humerus			R_elbow_med			R_elbow_lat			R_forearm			R_wrist_radius			R_wrist_ulna			L_humerus			L_elbow_med			L_elbow_lat			L_forearm			L_wrist_radius			L_wrist_ulna			R_HJC			L_HJC			R_HJC_reg			L_HJC_reg			
		X1	Y1	Z1	X2	Y2	Z2	X3	Y3	Z3	X4	Y4	Z4	X5	Y5	Z5	X6	Y6	Z6	X7	Y7	Z7	X8	Y8	Z8	X9	Y9	Z9	X10	Y10	Z10	X11	Y11	Z11	X12	Y12	Z12	X13	Y13	Z13	X14	Y14	Z14	X15	Y15	Z15	X16	Y16	Z16	X17	Y17	Z17	X18	Y18	Z18	X19	Y19	Z19	X20	Y20	Z20	X21	Y21	Z21	X22	Y22	Z22	X23	Y23	Z23	X24	Y24	Z24	X25	Y25	Z25	X26	Y26	Z26	X27	Y27	Z27	X28	Y28	Z28	X29	Y29	Z29	X30	Y30	Z30	X31	Y31	Z31	X32	Y32	Z32	X33	Y33	Z33	X34	Y34	Z34	X35	Y35	Z35	X36	Y36	Z36	X37	Y37	Z37	X38	Y38	Z38	X39	Y39	Z39	X40	Y40	Z40	X41	Y41	Z41	X42	Y42	Z42	X43	Y43	Z43	X44	Y44	Z44	X45	Y45	Z45	X46	Y46	Z46	X47	Y47	Z47	X48	Y48	Z48	X49	Y49	Z49	X50	Y50	Z50	X51	Y51	Z51	

119	1.18000000	1457.51516	496.36617	-37.32815	1508.65822	436.17737	-56.33538	1490.59279	93.66474	-54.50237	1424.14665	63.79198	-88.42250	1600.11962	43.01038	-32.14688	1643.99311	76.09884	-89.56427	1187.27937	468.60658	-350.23440	1161.51070	373.19306	-365.42422	926.25739	165.11648	-359.88784	848.65402	158.26677	-311.58580	973.49072	54.72568	-413.04773	1028.27352	55.28829	-363.79084	1503.20073	322.00555	-31.69202	1431.07148	437.06193	-25.56855	1428.72809	324.18850	-22.66273	1096.68685	435.29683	-362.69385	1021.22404	339.24166	-375.01934	1393.17395	812.11394	-13.81308	1433.55050	705.23130	-18.47537	1388.50538	665.57194	11.24402	1289.07523	771.70448	7.17191	1332.96019	663.23710	0.31561	1278.45670	723.06276	-385.43151	1258.55327	587.68161	-366.72797	1176.10566	740.98267	-334.47678	1158.20793	601.32470	-328.04571	1369.54107	942.40092	-63.19737	1181.86293	980.02858	-138.40363	1376.44275	905.03603	-312.26735	1177.38720	977.07644	-239.18152	1223.53411	1392.41258	-237.12254	1293.84308	1357.98420	-44.40205	1325.39087	1339.08708	-399.40147	1356.92115	1346.28468	-195.79358	1367.83724	1343.74154	-237.60060	1268.26694	1234.24108	32.26879	1189.93391	1026.08453	5.44704	1184.61048	1055.94292	72.30569	1247.43676	942.51849	133.79419	1282.58358	817.90466	175.39765	1249.20063	811.69258	185.93646	1373.73739	1231.39225	-447.82087	1379.80931	989.90790	-407.66677	1418.64125	1024.67496	-469.42657	1516.40730	980.70186	-420.64819	1628.54220	881.70218	-374.12398	1622.16407	867.15693	-404.99407	1291.26714	863.41878	-75.44027	1288.82484	841.29670	-280.71289	1301.98232	854.23884	-91.97267	1294.60738	849.37469	-258.02542	
120	1.19000000	1468.44720	496.81990	-34.94955	1518.29831	435.16131	-54.06591	1491.44599	93.36611	-54.48599	1424.39656	64.14167	-88.51053	1600.44186	42.31291	-31.79865	1644.66053	74.51115	-89.62171	1208.91501	466.71600	-348.57815	1180.55767	372.23729	-364.31952	938.31417	173.39931	-358.97617	861.95285	172.08154	-309.52165	976.97091	59.41383	-411.92578	1032.26797	55.84600	-363.68537	1509.94272	320.97743	-30.17321	1440.68568	437.78971	-23.42922	1435.60696	325.01210	-21.00138	1118.15667	436.67458	-360.63952	1039.26444	343.61112	-373.25860	1405.74025	813.22982	-10.71301	1445.66952	706.16450	-15.34171	1400.50482	666.67097	14.23735	1301.45346	773.21742	10.10018	1344.80663	664.50205	3.21301	1294.21810	722.93798	-381.82887	1277.58809	586.93611	-364.28355	1191.59327	738.03661	-330.40249	1177.18816	598.06845	-325.00307	1382.60164	943.83565	-60.46893	1194.73243	981.17640	-135.60356	1389.21886	906.38201	-309.39103	1190.07951	977.63312	-236.32494	1235.89999	1393.53923	-232.08397	1307.71065	1357.75124	-40.06709	1336.53818	1340.93914	-395.38443	1369.51589	1347.08204	-191.83268	1380.16755	1344.94708	-233.84296	1283.33560	1233.15015	35.62821	1206.07357	1024.91319	7.08056	1200.61979	1054.24653	74.24905	1261.40171	939.51933	135.13362	1293.86685	813.82062	175.97194	1260.31616	808.28887	186.42238	1383.96370	1233.09196	-444.47126	1388.59905	991.53477	-404.61212	1426.97069	1025.91833	-466.89724	1524.78743	980.75731	-418.71253	1635.95052	880.30789	-372.84934	1629.30962	865.89879	-403.76652	1304.47295	864.73330	-72.52106	1301.87790	842.32803	-277.76169	1315.02491	856.28976	-88.68650	1307.36000	850.45340	-254.60204	
121	1.20000000	1478.73352	497.14493	-32.54981	1527.37270	434.10091	-51.73775	1491.98415	93.17992	-54.39038	1424.44251	64.40565	-88.50563	1600.64505	41.92256	-31.38943	1645.02855	73.36323	-89.59070	1231.53995	464.78170	-347.06208	1200.69454	371.35985	-363.28657	951.90890	182.04654	-357.92024	877.47352	186.50606	-307.07190	981.43583	65.14371	-410.65432	1036.90732	57.07042	-363.49810	1516.18770	319.96326	-28.57331	1449.74199	438.44692	-21.20641	1442.00669	325.79718	-19.27037	1140.81570	438.07461	-358.49059	1058.61215	348.09809	-371.27364	1418.23004	814.29340	-7.61269	1457.52796	706.98264	-12.14138	1412.18071	667.75938	17.25803	1313.65722	774.85843	12.98155	1356.29492	665.81548	6.06473	1310.45016	722.81964	-378.33500	1297.36492	586.22496	-361.93291	1207.50927	734.84886	-326.54012	1196.93240	594.63558	-322.24618	1395.46299	945.39059	-57.60412	1207.48981	982.40327	-133.01235	1401.97835	907.97694	-306.38673	1202.69571	978.31971	-233.67866	1248.15600	1394.82285	-227.08762	1321.52786	1357.78652	-35.82917	1347.47215	1342.91644	-391.39798	1381.98560	1348.04572	-187.93693	1392.30833	1346.30009	-230.14191	1298.40421	1232.38117	38.95922	1222.20912	1024.07735	8.79024	1216.77120	1052.84701	76.29561	1275.73076	936.92701	136.42693	1305.69553	810.18557	176.42682	1271.92526	805.42023	186.83744	1393.84841	1234.92123	-441.18735	1396.80152	993.29384	-401.66831	1434.83851	1027.27542	-464.40820	1532.58221	980.77708	-416.81902	1642.61457	878.69212	-371.72210	1635.73129	864.46782	-402.68921	1317.45940	866.16025	-69.65240	1314.98155	843.54085	-274.86924	1327.95213	858.45982	-85.33328	1320.05698	851.73550	-251.10827	
122	1.21000000	1488.27806	497.24464	-30.17280	1535.87034	432.95466	-49.41417	1492.34116	93.05207	-54.24117	1424.41273	64.61311	-88.44986	1600.79947	41.67192	-30.95455	1645.21558	72.46570	-89.48850	1254.91252	462.89322	-345.62696	1221.69294	370.68458	-362.24370	966.91452	190.96926	-356.67725	895.00448	201.15300	-304.27052	987.20866	71.89436	-409.19087	1042.49251	59.18084	-363.11223	1521.99934	318.91721	-26.94688	1458.25180	438.94800	-18.92417	1447.99091	326.45111	-17.48977	1164.40548	439.57188	-356.15877	1079.04436	352.72334	-368.96755	1430.62108	815.17170	-4.48649	1469.04606	707.54098	-8.89376	1423.38072	668.70225	20.25130	1325.63954	776.54982	15.77599	1367.31706	667.06928	8.81816	1327.03452	722.68117	-375.05435	1317.68915	585.56449	-359.69566	1223.80264	731.50867	-322.94454	1217.27877	591.12356	-319.77814	1408.14146	947.05528	-54.65466	1220.12648	983.62721	-130.66304	1414.68280	909.71418	-303.30287	1215.20349	979.05211	-231.27578	1260.29181	1396.19159	-222.16703	1335.27716	1358.02946	-31.70527	1358.21145	1344.96446	-387.46256	1394.32952	1349.11001	-184.12003	1404.24532	1347.72523	-226.51004	1313.43574	1231.87264	42.24426	1238.24547	1023.52642	10.57293	1232.98905	1051.69448	78.43335	1290.39283	934.72170	137.68334	1318.09484	806.99072	176.79108	1284.08588	803.05642	187.23209	1403.41840	1236.82318	-437.96956	1404.43910	995.13244	-398.87248	1442.26513	1028.69630	-461.99836	1539.81303	980.74653	-414.98159	1648.56216	876.87007	-370.73136	1641.47492	862.88622	-401.74835	1330.24438	867.66889	-66.84816	1328.11309	844.83487	-272.04214	1340.79877	860.66368	-81.94108	1332.69379	853.13195	-247.57752	
